<?xml version="1.0" encoding="UTF-8"?>
<svg width="1003px" height="484px" viewBox="0 0 1003 484" version="1.1" xmlns="http://www.w3.org/2000/svg" xmlns:xlink="http://www.w3.org/1999/xlink">
    <!-- Generator: Sketch 46.2 (44496) - http://www.bohemiancoding.com/sketch -->
    <title>Flat line Designed Concepts 8 </title>
    <desc>Created with Sketch.</desc>
    <defs>
        <path d="M17.140419,149.764876 L7.87306667,149.764876 C7.29211429,149.0352 6.82270476,148.221867 6.47878095,147.334171 C3.89935238,143.709029 2.35169524,139.307733 2.35169524,134.529981 L2.35169524,121.43299 L15.1326476,121.43299 L15.1326476,144.015771 C15.1326476,146.18621 15.8855619,148.184686 17.140419,149.764876 Z M2.35169524,61.9945905 L2.35169524,41.2615619 L15.1326476,41.2615619 L15.1326476,48.5490286 L2.35169524,61.9945905 Z M2.35169524,34.2901333 L15.1326476,34.2901333 L15.1326476,29.414781 L2.35169524,29.414781 L2.35169524,34.2901333 Z M15.1326476,22.4433524 L2.35169524,22.4433524 L2.35169524,7.28281905 L6.45089524,7.28281905 L6.45089524,3.79710476 L15.1326476,3.79710476 L15.1326476,22.4433524 Z" id="path-1"></path>
    </defs>
    <g id="Page-1" stroke="none" stroke-width="1" fill="none" fill-rule="evenodd">
        <g id="Flat-line-Designed-Concepts-8-" transform="translate(-4.000000, -3.000000)">
            <path d="M101.968762,168.425067 L226.408762,168.425067 C226.408762,209.319467 259.560229,242.470933 300.459276,242.470933 L403.083352,242.470933 C425.898514,242.470933 444.39139,260.96381 444.39139,283.778971 C444.39139,306.594133 425.898514,325.08701 403.083352,325.08701 L47.1408,325.08701 C23.3310476,325.08701 4.02948571,344.388571 4.02948571,368.198324 C4.02948571,392.012724 23.3310476,411.314286 47.1408,411.314286 L279.075581,411.314286 C315.945143,411.314286 345.810743,441.244952 345.727086,478.114514 L796.360229,479.062629 L795.03101,400.029867 L955.127543,400.029867 C983.640686,400.029867 1006.75794,376.917257 1006.75794,348.399467 C1006.75794,319.886324 983.640686,296.769067 955.127543,296.769067 L830.88739,296.769067 C804.59581,296.769067 783.277181,275.455086 783.277181,249.158857 C783.277181,222.867276 804.59581,201.548648 830.88739,201.548648 L842.399543,201.548648 C880.95619,201.548648 912.216076,170.29341 912.216076,131.736762 C912.216076,93.1801143 880.95619,61.9202286 842.399543,61.9202286 L101.968762,61.9202286 C72.5586286,61.9202286 48.7209905,85.7625143 48.7209905,115.172648 C48.7209905,144.582781 72.5586286,168.425067 101.968762,168.425067 Z" id="Fill-145" fill="#BFDDEA"></path>
            <path d="M805.0048,483.226895 L805.0048,54.4793905 C805.0048,45.3375238 797.591848,37.929219 788.454629,37.929219 L543.855086,37.929219 C534.713219,37.929219 527.304914,45.3421714 527.304914,54.4840381 L527.304914,483.231543 L805.0048,483.226895" id="Fill-146" fill="#9CC8E1"></path>
            <path d="M782.324419,483.226895 L782.324419,54.4793905 C782.324419,45.3375238 776.045486,37.929219 768.293257,37.929219 L560.911848,37.929219 C553.159619,37.929219 546.880686,45.3421714 546.880686,54.4840381 L546.880686,483.231543 L782.324419,483.226895" id="Fill-147" fill="#FFFFFE"></path>
            <path d="M527.304914,80.8313905 L527.304914,51.8488381 C527.304914,44.1616762 533.537371,37.929219 541.224533,37.929219 L791.089829,37.929219 C798.772343,37.929219 805.0048,44.1616762 805.0048,51.8488381 L805.0048,80.8313905 L527.304914,80.8313905" id="Fill-148" fill="#9CC8E1"></path>
            <path d="M530.790629,134.966857 L523.8192,134.966857 L523.8192,51.8488381 C523.8192,42.2515048 531.6272,34.4435048 541.224533,34.4435048 L578.098743,34.4435048 L578.098743,41.4149333 L541.224533,41.4149333 C535.470781,41.4149333 530.790629,46.0950857 530.790629,51.8488381 L530.790629,134.966857" id="Fill-149" fill="#3378B0"></path>
            <path d="M808.490514,481.214476 L801.519086,481.214476 L801.519086,51.8488381 C801.519086,46.0950857 796.838933,41.4149333 791.085181,41.4149333 L626.341029,41.4149333 L626.341029,34.4435048 L791.085181,34.4435048 C800.682514,34.4435048 808.490514,42.2515048 808.490514,51.8488381 L808.490514,481.214476" id="Fill-150" fill="#3378B0"></path>
            <polygon id="Fill-151" fill="#3378B0" points="591.567543 41.4149333 610.641371 41.4149333 610.641371 34.4435048 591.567543 34.4435048"></polygon>
            <polygon id="Fill-152" fill="#3378B0" points="527.304914 85.070019 805.0048 85.070019 805.0048 78.0985905 527.304914 78.0985905"></polygon>
            <polygon id="Fill-153" fill="#3378B0" points="559.196876 65.2246857 565.661714 65.2246857 565.661714 58.2532571 559.196876 58.2532571"></polygon>
            <polygon id="Fill-154" fill="#3378B0" points="577.945371 65.2246857 584.414857 65.2246857 584.414857 58.2532571 577.945371 58.2532571"></polygon>
            <polygon id="Fill-155" fill="#3378B0" points="596.703162 65.2246857 603.163352 65.2246857 603.163352 58.2532571 596.703162 58.2532571"></polygon>
            <polygon id="Fill-156" fill="#9CC8E1" points="564.509105 193.805714 767.80061 193.805714 767.80061 113.620343 564.509105 113.620343"></polygon>
            <polygon id="Fill-157" fill="#9CC8E1" points="564.527695 324.9104 626.341029 324.9104 626.341029 244.725029 564.527695 244.725029"></polygon>
            <polygon id="Fill-158" fill="#D0E8EF" points="635.269105 324.9104 697.082438 324.9104 697.082438 244.725029 635.269105 244.725029"></polygon>
            <polygon id="Fill-159" fill="#62A6CF" points="706.010514 324.9104 767.823848 324.9104 767.823848 244.725029 706.010514 244.725029"></polygon>
            <polygon id="Fill-160" fill="#3378B0" points="622.957562 222.662781 709.398629 222.662781 709.398629 215.691352 622.957562 215.691352"></polygon>
            <path d="M219.251429,483.231543 L375.931962,483.231543 C382.51299,483.231543 387.848457,477.896076 387.848457,471.315048 L387.848457,345.689905 C387.848457,339.113524 382.51299,333.778057 375.931962,333.778057 L219.251429,333.778057 C212.6704,333.778057 207.339581,339.113524 207.339581,345.689905 L207.339581,471.315048 C207.339581,477.896076 212.6704,483.231543 219.251429,483.231543" id="Fill-161" fill="#FFFFFE"></path>
            <polyline id="Fill-162" fill="#62A6CF" points="207.339581 434.942781 269.775695 396.827657 313.124038 422.129295 350.133029 383.200838 387.848457 425.861333 387.848457 447.923581 207.339581 447.923581 207.339581 434.942781"></polyline>
            <polygon id="Fill-163" fill="#3378B0" points="207.339581 451.413943 387.848457 451.413943 387.848457 444.442514 207.339581 444.442514"></polygon>
            <polyline id="Fill-164" fill="#3378B0" points="209.152152 437.921905 205.522362 431.963657 269.733867 392.770286 312.49661 417.728 350.221333 378.046629 390.460419 423.551467 385.236495 428.1712 350.035429 388.355048 313.746819 426.53059 269.817524 400.885029 209.152152 437.921905"></polyline>
            <path d="M285.196495,363.341562 C285.196495,367.450057 288.52419,370.777752 292.632686,370.777752 C296.736533,370.777752 300.064229,367.450057 300.064229,363.341562 C300.064229,359.237714 296.736533,355.910019 292.632686,355.910019 C288.52419,355.910019 285.196495,359.237714 285.196495,363.341562" id="Fill-165" fill="#62A6CF"></path>
            <path d="M292.628038,359.395733 C290.452952,359.395733 288.68221,361.166476 288.68221,363.34621 C288.68221,365.521295 290.452952,367.28739 292.628038,367.28739 C294.807771,367.28739 296.578514,365.521295 296.578514,363.34621 C296.578514,361.166476 294.807771,359.395733 292.628038,359.395733 Z M292.628038,374.258819 C286.609371,374.258819 281.710781,369.364876 281.710781,363.34621 C281.710781,357.322895 286.609371,352.424305 292.628038,352.424305 C298.651352,352.424305 303.549943,357.322895 303.549943,363.34621 C303.549943,369.364876 298.651352,374.258819 292.628038,374.258819 L292.628038,374.258819 Z" id="Fill-166" fill="#3378B0"></path>
            <polygon id="Fill-167" fill="#3378B0" points="320.453333 359.395733 361.640533 359.395733 361.640533 352.424305 320.453333 352.424305"></polygon>
            <polygon id="Fill-168" fill="#3378B0" points="336.631695 371.242514 377.818895 371.242514 377.818895 364.271086 336.631695 364.271086"></polygon>
            <polygon id="Fill-169" fill="#3378B0" points="279.001219 337.263771 341.079467 337.263771 341.079467 330.292343 279.001219 330.292343"></polygon>
            <path d="M375.93661,486.717257 L219.251429,486.717257 C210.760229,486.717257 203.853867,479.806248 203.853867,471.315048 L203.853867,399.137524 L210.825295,399.137524 L210.825295,471.315048 C210.825295,475.962667 214.60381,479.745829 219.251429,479.745829 L375.93661,479.745829 C380.579581,479.745829 384.362743,475.962667 384.362743,471.315048 L391.334171,471.315048 C391.334171,479.806248 384.423162,486.717257 375.93661,486.717257" id="Fill-170" fill="#3378B0"></path>
            <path d="M269.385295,384.306971 L262.990171,349.705448 C266.647848,341.530286 268.725333,332.495314 268.725333,322.963048 C268.725333,286.716267 239.343086,257.338667 203.100952,257.338667 C166.858819,257.338667 137.476571,286.716267 137.476571,322.963048 C137.476571,359.205181 166.858819,388.587429 203.100952,388.587429 C215.895848,388.587429 227.803048,384.864686 237.897676,378.529981 L269.385295,384.306971" id="Fill-171" fill="#9CC8E1"></path>
            <path d="M203.100952,392.073143 C164.990476,392.073143 133.990857,361.073524 133.990857,322.9584 C133.990857,284.852571 164.990476,253.848305 203.100952,253.848305 C212.6704,253.848305 221.947048,255.772419 230.665981,259.569524 L227.882057,265.96 C220.050819,262.548648 211.708343,260.819733 203.100952,260.819733 C168.838705,260.819733 140.962286,288.696152 140.962286,322.9584 C140.962286,357.225295 168.838705,385.101714 203.100952,385.101714 C214.724648,385.101714 226.115962,381.806552 236.047924,375.578743 L237.195886,374.858362 L265.035124,379.966095 L259.365029,349.273219 L259.806552,348.287924 C263.413105,340.219657 265.239619,331.700571 265.239619,322.9584 C265.239619,308.755276 260.322438,294.863543 251.389714,283.853333 L256.80419,279.461333 C266.7408,291.712457 272.211048,307.161143 272.211048,322.9584 C272.211048,332.323352 270.328762,341.460571 266.610667,350.123733 L273.730819,388.652495 L238.580876,382.2016 C227.821638,388.666438 215.584457,392.073143 203.100952,392.073143" id="Fill-172" fill="#3378B0"></path>
            <path d="M247.197562,279.187124 C243.302857,275.259886 238.892267,271.857829 234.095924,269.087848 L237.581638,263.055238 C242.912457,266.131962 247.815695,269.905829 252.151924,274.279238 L247.197562,279.187124" id="Fill-173" fill="#3378B0"></path>
            <path d="M254.094629,322.963048 C254.094629,350.291048 231.4096,372.450895 203.430933,372.450895 C175.447619,372.450895 152.767238,350.291048 152.767238,322.963048 C152.767238,295.6304 175.447619,273.4752 203.430933,273.4752 C231.4096,273.4752 254.094629,295.6304 254.094629,322.963048" id="Fill-174" fill="#FFFFFE"></path>
            <path d="M209.46819,306.34781 L210.783467,306.34781 C211.815238,303.32221 213.07939,299.111467 213.074743,296.569219 C213.074743,295.402667 213.228114,293.538971 213.102629,291.819352 L213.074743,292.958019 C213.07939,297.257067 209.46819,306.34781 209.46819,306.34781" id="Fill-175" fill="#F3F4F1"></path>
            <path d="M237.953448,330.947657 L230.480076,330.947657 L230.480076,323.976229 L237.953448,323.976229 C238.4368,323.976229 238.84579,323.567238 238.84579,323.088533 C238.84579,322.605181 238.4368,322.19619 237.953448,322.19619 L230.480076,322.19619 L230.480076,315.224762 L237.953448,315.224762 C242.289676,315.224762 245.817219,318.752305 245.817219,323.088533 C245.817219,327.420114 242.289676,330.947657 237.953448,330.947657" id="Fill-176" fill="#3378B0"></path>
            <path d="M233.3616,339.703771 L222.80221,339.703771 L222.80221,332.732343 L233.3616,332.732343 C233.844952,332.732343 234.253943,332.323352 234.253943,331.835352 C234.253943,331.356648 233.844952,330.947657 233.3616,330.947657 L222.80221,330.947657 L222.80221,323.976229 L233.3616,323.976229 C237.697829,323.976229 241.225371,327.503771 241.225371,331.835352 C241.225371,336.176229 237.697829,339.703771 233.3616,339.703771" id="Fill-177" fill="#3378B0"></path>
            <path d="M228.769752,348.455238 L203.881752,348.455238 C201.832152,348.455238 199.833676,347.614019 198.397562,346.150019 L194.042743,341.6976 L192.959848,341.683657 L192.959848,334.712229 L194.01021,334.712229 C195.8832,334.712229 197.714362,335.483733 199.02499,336.822248 L203.37981,341.274667 L203.881752,341.48381 L228.769752,341.48381 C229.253105,341.48381 229.662095,341.074819 229.662095,340.591467 C229.662095,340.112762 229.253105,339.703771 228.769752,339.703771 L224.642667,339.703771 L224.642667,332.732343 L228.769752,332.732343 C233.105981,332.732343 236.633524,336.259886 236.633524,340.591467 C236.633524,344.927695 233.105981,348.455238 228.769752,348.455238" id="Fill-178" fill="#3378B0"></path>
            <path d="M236.224533,322.19619 L222.80221,322.19619 L222.80221,315.224762 L236.224533,315.224762 C236.707886,315.224762 237.116876,314.815771 237.116876,314.332419 C237.116876,313.849067 236.707886,313.440076 236.224533,313.440076 L203.891048,313.440076 L205.782629,308.671619 C207.08861,305.3904 209.147505,299.209067 209.147505,296.569219 C209.147505,296.155581 209.166095,295.658286 209.184686,295.114514 L209.217219,294.133867 C207.971657,297.573105 206.200914,302.002286 204.681143,304.089067 C203.41699,305.813333 198.578819,312.082971 198.578819,312.082971 L197.533105,313.440076 L191.212343,313.440076 L191.212343,306.468648 L194.103162,306.468648 C195.576457,304.553829 198.183771,301.161067 199.057524,299.971276 C200.335619,298.214476 202.761676,291.698514 204.072305,287.636495 L204.472,286.799924 C205.406171,285.368457 207.18621,284.541181 209.654095,284.666667 C212.159162,284.68061 213.892724,285.419581 214.812952,286.860343 C216.374552,289.300343 216.244419,292.809295 216.151467,295.370133 L216.118933,296.569219 C216.118933,299.297371 215.0128,303.317562 213.981029,306.468648 L236.224533,306.468648 C240.560762,306.468648 244.088305,309.99619 244.088305,314.332419 C244.088305,318.668648 240.560762,322.19619 236.224533,322.19619" id="Fill-179" fill="#3378B0"></path>
            <polygon id="Fill-180" fill="#3378B0" points="167.700038 308.69021 172.482438 308.69021 172.482438 301.718781 167.700038 301.718781"></polygon>
            <path d="M188.409829,345.931581 L167.700038,345.931581 L167.700038,338.960152 L188.409829,338.960152 L188.558552,308.834286 L183.069714,308.69021 L183.069714,301.718781 L188.409829,301.718781 C192.337067,301.718781 195.529981,304.907048 195.529981,308.834286 L195.529981,338.806781 C195.529981,342.734019 192.337067,345.931581 188.409829,345.931581" id="Fill-181" fill="#3378B0"></path>
            <polygon id="Fill-182" fill="#3378B0" points="173.965029 308.69021 179.416686 308.69021 179.416686 301.718781 173.965029 301.718781"></polygon>
            <polygon id="Fill-183" fill="#3378B0" points="199.945219 250.297524 206.916648 250.297524 206.916648 224.749562 199.945219 224.749562"></polygon>
            <polyline id="Fill-184" fill="#3378B0" points="225.679086 253.704229 218.944686 251.88701 222.267733 239.552229 228.997486 241.369448 225.679086 253.704229"></polyline>
            <polyline id="Fill-185" fill="#3378B0" points="242.912457 261.8608 236.879848 258.36579 249.702629 236.27101 255.735238 239.766019 242.912457 261.8608"></polyline>
            <polyline id="Fill-186" fill="#3378B0" points="257.436267 274.223467 252.519086 269.2784 261.581943 260.271314 266.494476 265.216381 257.436267 274.223467"></polyline>
            <polyline id="Fill-187" fill="#3378B0" points="268.241981 289.932419 264.784152 283.876571 286.967238 271.202514 290.425067 277.253714 268.241981 289.932419"></polyline>
            <polyline id="Fill-188" fill="#3378B0" points="274.223467 307.988419 273.210286 301.086705 285.563657 299.264838 286.581486 306.161905 274.223467 307.988419"></polyline>
            <polyline id="Fill-189" fill="#3378B0" points="183.738971 405.318857 177.02781 403.422629 180.281143 391.924419 186.992305 393.820648 183.738971 405.318857"></polyline>
            <polyline id="Fill-190" fill="#3378B0" points="156.034514 409.046248 150.053029 405.467581 163.159314 383.540114 169.1408 387.118781 156.034514 409.046248"></polyline>
            <polyline id="Fill-191" fill="#3378B0" points="143.741562 385.691962 138.86621 380.709714 148.784229 371.005486 153.659581 375.987733 143.741562 385.691962"></polyline>
            <polyline id="Fill-192" fill="#3378B0" points="119.230019 373.636038 115.8512 367.533714 138.192305 355.14781 141.571124 361.250133 119.230019 373.636038"></polyline>
            <polyline id="Fill-193" fill="#3378B0" points="120.2432 346.94941 118.686248 340.15459 132.13181 337.068571 133.688762 343.868038 120.2432 346.94941"></polyline>
            <polyline id="Fill-194" fill="#3378B0" points="130.714286 325.031238 105.170971 324.529295 105.3104 317.557867 130.849067 318.05981 130.714286 325.031238"></polyline>
            <polyline id="Fill-195" fill="#3378B0" points="132.675581 306.064305 120.405867 302.504229 122.348571 295.80701 134.618286 299.362438 132.675581 306.064305"></polyline>
            <polyline id="Fill-196" fill="#3378B0" points="139.498286 288.259276 117.654476 275.008914 121.270324 269.046019 143.114133 282.291733 139.498286 288.259276"></polyline>
            <polyline id="Fill-197" fill="#3378B0" points="150.71299 272.833829 141.887162 263.603657 146.925181 258.784076 155.75101 268.014248 150.71299 272.833829"></polyline>
            <polyline id="Fill-198" fill="#3378B0" points="165.552838 260.856914 153.306362 238.4368 159.427276 235.095162 171.669105 257.515276 165.552838 260.856914"></polyline>
            <polyline id="Fill-199" fill="#3378B0" points="182.990705 253.146514 179.99299 240.728076 186.769219 239.092114 189.766933 251.510552 182.990705 253.146514"></polyline>
            <path d="M494.330057,85.070019 L474.466133,85.070019 C472.542019,85.070019 470.980419,83.508419 470.980419,81.5843048 C470.980419,79.6601905 472.542019,78.0985905 474.466133,78.0985905 L494.330057,78.0985905 C496.254171,78.0985905 497.815771,79.6601905 497.815771,81.5843048 C497.815771,83.508419 496.254171,85.070019 494.330057,85.070019" id="Fill-200" fill="#3378B0"></path>
            <path d="M484.398095,95.001981 C482.473981,95.001981 480.912381,93.440381 480.912381,91.5162667 L480.912381,71.6523429 C480.912381,69.7282286 482.473981,68.1666286 484.398095,68.1666286 C486.32221,68.1666286 487.88381,69.7282286 487.88381,71.6523429 L487.88381,91.5162667 C487.88381,93.440381 486.32221,95.001981 484.398095,95.001981" id="Fill-201" fill="#3378B0"></path>
            <path d="M946.046095,268.525486 L926.182171,268.525486 C924.258057,268.525486 922.696457,266.963886 922.696457,265.039771 C922.696457,263.115657 924.258057,261.554057 926.182171,261.554057 L946.046095,261.554057 C947.97021,261.554057 949.53181,263.115657 949.53181,265.039771 C949.53181,266.963886 947.97021,268.525486 946.046095,268.525486" id="Fill-202" fill="#3378B0"></path>
            <path d="M936.114133,278.457448 C934.190019,278.457448 932.628419,276.895848 932.628419,274.971733 L932.628419,255.10781 C932.628419,253.183695 934.190019,251.622095 936.114133,251.622095 C938.038248,251.622095 939.599848,253.183695 939.599848,255.10781 L939.599848,274.971733 C939.599848,276.895848 938.038248,278.457448 936.114133,278.457448" id="Fill-203" fill="#3378B0"></path>
            <path d="M99.6031238,252.551619 L79.7392,252.551619 C77.8150857,252.551619 76.2534857,250.990019 76.2534857,249.065905 C76.2534857,247.14179 77.8150857,245.58019 79.7392,245.58019 L99.6031238,245.58019 C101.527238,245.58019 103.088838,247.14179 103.088838,249.065905 C103.088838,250.990019 101.527238,252.551619 99.6031238,252.551619" id="Fill-204" fill="#3378B0"></path>
            <path d="M89.6711619,262.483581 C87.7470476,262.483581 86.1854476,260.921981 86.1854476,258.997867 L86.1854476,239.133943 C86.1854476,237.209829 87.7470476,235.648229 89.6711619,235.648229 C91.5952762,235.648229 93.1568762,237.209829 93.1568762,239.133943 L93.1568762,258.997867 C93.1568762,260.921981 91.5952762,262.483581 89.6711619,262.483581" id="Fill-205" fill="#3378B0"></path>
            <path d="M285.605486,164.223619 C284.713143,164.223619 283.8208,163.884343 283.142248,163.201143 C281.780495,161.83939 281.780495,159.636419 283.142248,158.274667 L297.187352,144.224914 C298.549105,142.863162 300.756724,142.863162 302.118476,144.224914 C303.480229,145.586667 303.480229,147.794286 302.118476,149.156038 L288.068724,163.201143 C287.390171,163.884343 286.497829,164.223619 285.605486,164.223619" id="Fill-206" fill="#3378B0"></path>
            <path d="M299.655238,164.223619 C298.762895,164.223619 297.870552,163.884343 297.187352,163.201143 L283.142248,149.156038 C281.780495,147.794286 281.780495,145.586667 283.142248,144.224914 C284.504,142.863162 286.706971,142.863162 288.068724,144.224914 L302.118476,158.274667 C303.480229,159.636419 303.480229,161.83939 302.118476,163.201143 C301.435276,163.884343 300.547581,164.223619 299.655238,164.223619" id="Fill-207" fill="#3378B0"></path>
            <path d="M900.610971,131.151162 C899.718629,131.151162 898.826286,130.811886 898.147733,130.128686 C896.785981,128.766933 896.785981,126.559314 898.147733,125.20221 L912.192838,111.157105 C913.55459,109.795352 915.76221,109.795352 917.119314,111.157105 C918.481067,112.518857 918.481067,114.726476 917.119314,116.088229 L903.07421,130.128686 C902.395657,130.811886 901.503314,131.151162 900.610971,131.151162" id="Fill-208" fill="#3378B0"></path>
            <path d="M914.656076,131.151162 C913.763733,131.151162 912.87139,130.811886 912.192838,130.128686 L898.147733,116.088229 C896.785981,114.726476 896.785981,112.518857 898.147733,111.157105 C899.509486,109.795352 901.712457,109.795352 903.07421,111.157105 L917.119314,125.20221 C918.481067,126.559314 918.481067,128.766933 917.119314,130.128686 C916.440762,130.811886 915.548419,131.151162 914.656076,131.151162" id="Fill-209" fill="#3378B0"></path>
            <polygon id="Fill-210" fill="#3378B0" points="357.053333 85.070019 437.903314 85.070019 437.903314 78.0985905 357.053333 78.0985905"></polygon>
            <polygon id="Fill-211" fill="#3378B0" points="831.830857 268.525486 912.680838 268.525486 912.680838 261.554057 831.830857 261.554057"></polygon>
            <polygon id="Fill-212" fill="#3378B0" points="220.813029 51.1749333 399.26301 51.1749333 399.26301 44.2035048 220.813029 44.2035048"></polygon>
            <polygon id="Fill-213" fill="#3378B0" points="444.874743 85.070019 461.466743 85.070019 461.466743 78.0985905 444.874743 78.0985905"></polygon>
            <path d="M328.479771,267.688914 C328.479771,272.122743 324.887162,275.715352 320.453333,275.715352 C316.019505,275.715352 312.426895,272.122743 312.426895,267.688914 C312.426895,263.255086 316.019505,259.662476 320.453333,259.662476 C324.887162,259.662476 328.479771,263.255086 328.479771,267.688914" id="Fill-214" fill="#3378B0"></path>
            <path d="M920.883886,214.557333 C920.883886,218.986514 917.291276,222.583771 912.857448,222.583771 C908.423619,222.583771 904.83101,218.986514 904.83101,214.557333 C904.83101,210.123505 908.423619,206.526248 912.857448,206.526248 C917.291276,206.526248 920.883886,210.123505 920.883886,214.557333" id="Fill-215" fill="#3378B0"></path>
            <path d="M472.458362,11.1403429 C472.458362,15.5741714 468.861105,19.166781 464.427276,19.166781 C459.993448,19.166781 456.400838,15.5741714 456.400838,11.1403429 C456.400838,6.70651429 459.993448,3.11390476 464.427276,3.11390476 C468.861105,3.11390476 472.458362,6.70651429 472.458362,11.1403429" id="Fill-216" fill="#3378B0"></path>
            <path d="M159.85021,203.8864 C159.85021,207.149029 157.205714,209.788876 153.947733,209.788876 C150.685105,209.788876 148.045257,207.149029 148.045257,203.8864 C148.045257,200.628419 150.685105,197.988571 153.947733,197.988571 C157.205714,197.988571 159.85021,200.628419 159.85021,203.8864" id="Fill-217" fill="#3378B0"></path>
            <path d="M848.204419,364.675429 C848.204419,367.93341 845.559924,370.577905 842.301943,370.577905 C839.043962,370.577905 836.399467,367.93341 836.399467,364.675429 C836.399467,361.417448 839.043962,358.772952 842.301943,358.772952 C845.559924,358.772952 848.204419,361.417448 848.204419,364.675429" id="Fill-218" fill="#3378B0"></path>
            <path d="M208.408533,110.683048 C208.408533,112.895314 206.614552,114.689295 204.402286,114.689295 C202.190019,114.689295 200.396038,112.895314 200.396038,110.683048 C200.396038,108.470781 202.190019,106.6768 204.402286,106.6768 C206.614552,106.6768 208.408533,108.470781 208.408533,110.683048" id="Fill-219" fill="#3378B0"></path>
            <path d="M856.212267,86.4503619 C856.212267,88.6626286 854.418286,90.4519619 852.210667,90.4519619 C849.9984,90.4519619 848.204419,88.6626286 848.204419,86.4503619 C848.204419,84.2380952 849.9984,82.4441143 852.210667,82.4441143 C854.418286,82.4441143 856.212267,84.2380952 856.212267,86.4503619" id="Fill-220" fill="#3378B0"></path>
            <g id="Group-223" transform="translate(334.628571, 329.980952)">
                <mask id="mask-2" fill="white">
                    <use xlink:href="#path-1"></use>
                </mask>
                <g id="Clip-222"></g>
                <polygon id="Fill-221" fill="#B4D7E7" mask="url(#mask-2)" points="2.35169524 149.764876 17.140419 149.764876 17.140419 3.79710476 2.35169524 3.79710476"></polygon>
            </g>
            <polyline id="Fill-224" fill="#4C97C6" points="349.761219 444.442514 336.980267 444.442514 336.980267 402.09341 349.761219 388.647848 349.761219 444.442514"></polyline>
            <polygon id="Fill-225" fill="#3378B0" points="336.980267 451.413943 349.761219 451.413943 349.761219 444.442514 336.980267 444.442514"></polygon>
            <polyline id="Fill-226" fill="#3378B0" points="336.980267 402.09341 336.980267 391.975543 349.761219 378.529981 349.761219 388.647848 336.980267 402.09341"></polyline>
            <polygon id="Fill-227" fill="#3378B0" points="336.980267 359.395733 349.761219 359.395733 349.761219 352.424305 336.980267 352.424305"></polygon>
            <polygon id="Fill-228" fill="#3378B0" points="336.980267 371.242514 349.761219 371.242514 349.761219 364.271086 336.980267 364.271086"></polygon>
            <polygon id="Fill-229" fill="#3378B0" points="336.980267 337.263771 341.079467 337.263771 341.079467 330.292343 336.980267 330.292343"></polygon>
            <path d="M359.18659,486.717257 L359.18659,486.717257 C354.408838,486.717257 350.007543,485.164952 346.3824,482.590171 C344.844038,481.995276 343.510171,481.005333 342.501638,479.745829 L351.76899,479.745829 C353.460724,481.86979 356.068038,483.231543 358.996038,483.231543 L359.18659,483.231543 L359.18659,486.717257" id="Fill-230" fill="#3378B0"></path>
            <path d="M559.07139,483.231543 L549.776152,483.231543 C549.776152,483.231543 549.776152,483.231543 549.7808,483.231543 L559.089981,483.231543 C559.085333,483.231543 559.076038,483.231543 559.07139,483.231543" id="Fill-231" fill="#9CCAE2"></path>
            <polygon id="Fill-232" fill="#71B1D5" points="527.304914 150.220343 546.880686 150.220343 546.880686 146.734629 527.304914 146.734629"></polygon>
            <path d="M549.7808,483.231543 C554.879238,483.226895 559.010971,479.095162 559.010971,473.996724 L559.010971,159.455162 C559.010971,154.356724 554.87459,150.220343 549.776152,150.220343 L546.880686,150.220343 L546.880686,146.734629 L549.5856,146.734629 C554.363352,146.734629 558.764648,148.286933 562.38979,150.861714 C563.152,151.154514 563.863086,151.544914 564.509105,152.018971 L564.509105,193.805714 L571.791924,193.805714 L571.791924,244.725029 L564.527695,244.725029 L564.527695,324.9104 L571.791924,324.9104 L571.791924,357.615695 L568.30621,357.615695 L568.30621,473.996724 C568.30621,479.090514 564.183771,483.2176 559.089981,483.231543 L549.7808,483.231543" id="Fill-233" fill="#B4D7E7"></path>
            <path d="M571.791924,193.805714 L564.509105,193.805714 L564.509105,152.018971 C565.917333,153.050743 567.023467,154.472914 567.664838,156.136762 C570.239619,159.761905 571.791924,164.1632 571.791924,168.940952 L571.791924,193.805714" id="Fill-234" fill="#71B1D5"></path>
            <polygon id="Fill-235" fill="#71B1D5" points="564.527695 324.9104 571.791924 324.9104 571.791924 244.725029 564.527695 244.725029"></polygon>
            <path d="M549.776152,483.231543 L358.996038,483.231543 C353.8976,483.231543 349.761219,479.095162 349.761219,473.996724 L349.761219,159.455162 C349.761219,154.356724 353.8976,150.220343 358.996038,150.220343 L549.776152,150.220343 C554.87459,150.220343 559.010971,154.356724 559.010971,159.455162 L559.010971,473.996724 C559.010971,479.095162 554.87459,483.231543 549.776152,483.231543" id="Fill-236" fill="#FFFFFE"></path>
            <path d="M368.481829,486.717257 C356.235352,486.717257 346.275505,476.752762 346.275505,464.510933 L346.275505,168.940952 C346.275505,156.699124 356.235352,146.734629 368.481829,146.734629 L386.310095,146.734629 L386.310095,153.706057 L368.481829,153.706057 C360.078933,153.706057 353.246933,160.538057 353.246933,168.940952 L353.246933,464.510933 C353.246933,472.913829 360.078933,479.745829 368.481829,479.745829 L368.481829,486.717257" id="Fill-237" fill="#3378B0"></path>
            <path d="M562.496686,357.615695 L555.525257,357.615695 L555.525257,168.940952 C555.525257,160.538057 548.693257,153.706057 540.290362,153.706057 L431.266514,153.706057 L431.266514,146.734629 L540.290362,146.734629 C552.536838,146.734629 562.496686,156.699124 562.496686,168.940952 L562.496686,357.615695" id="Fill-238" fill="#3378B0"></path>
            <polygon id="Fill-239" fill="#3378B0" points="423.416686 178.798552 485.355505 178.798552 485.355505 171.827124 423.416686 171.827124"></polygon>
            <path d="M454.383771,449.438705 C450.767924,449.438705 447.825981,452.380648 447.825981,455.996495 C447.825981,459.61699 450.767924,462.554286 454.383771,462.554286 C457.999619,462.554286 460.941562,459.61699 460.941562,455.996495 C460.941562,452.380648 457.999619,449.438705 454.383771,449.438705 Z M454.383771,469.525714 C446.924343,469.525714 440.854552,463.460571 440.854552,455.996495 C440.854552,448.537067 446.924343,442.467276 454.383771,442.467276 C461.8432,442.467276 467.91299,448.537067 467.91299,455.996495 C467.91299,463.460571 461.8432,469.525714 454.383771,469.525714 L454.383771,469.525714 Z" id="Fill-240" fill="#3378B0"></path>
            <polygon id="Fill-241" fill="#9CC8E1" points="370.6848 434.166629 538.082743 434.166629 538.082743 198.281371 370.6848 198.281371"></polygon>
            <polygon id="Fill-242" fill="#3378B0" points="396.716114 153.706057 418.773714 153.706057 418.773714 146.734629 396.716114 146.734629"></polygon>
            <path d="M549.776152,483.231543 L489.041067,483.231543 C488.501943,482.26019 488.167314,481.163352 488.167314,479.973562 L488.167314,434.166629 L538.082743,434.166629 L538.082743,364.2432 L559.010971,364.2432 L559.010971,473.996724 C559.010971,479.095162 554.879238,483.226895 549.7808,483.231543 C549.776152,483.231543 549.776152,483.231543 549.776152,483.231543" id="Fill-243" fill="#B4D7E7"></path>
            <path d="M538.082743,434.166629 L488.167314,434.166629 L488.167314,370.982248 C488.167314,367.2688 491.192914,364.2432 494.906362,364.2432 L538.082743,364.2432 L538.082743,434.166629" id="Fill-244" fill="#71B1D5"></path>
            <path d="M668.652952,483.231543 L504.2016,483.231543 C502.407619,483.231543 500.948267,481.77219 500.948267,479.973562 L500.948267,370.982248 C500.948267,369.188267 502.407619,367.728914 504.2016,367.728914 L668.652952,367.728914 C670.451581,367.728914 671.910933,369.188267 671.910933,370.982248 L671.910933,479.973562 C671.910933,481.77219 670.451581,483.231543 668.652952,483.231543" id="Fill-245" fill="#FFFFFE"></path>
            <path d="M601.378667,415.608686 L574.185448,431.308343 C572.470476,432.298286 570.327924,431.062019 570.327924,429.082133 L570.327924,397.682819 C570.327924,395.707581 572.470476,394.471314 574.185448,395.461257 L601.378667,411.156267 C603.08899,412.14621 603.08899,414.618743 601.378667,415.608686" id="Fill-246" fill="#62A6CF"></path>
            <path d="M573.813638,399.272305 L573.813638,427.492648 L598.260114,413.382476 L573.813638,399.272305 Z M572.898057,435.147276 C571.85699,435.147276 570.820571,434.873067 569.872457,434.324648 C567.976229,433.232457 566.84221,431.271162 566.84221,429.082133 L566.84221,397.682819 C566.84221,395.498438 567.976229,393.537143 569.872457,392.444952 C571.768686,391.338819 574.032076,391.348114 575.928305,392.444952 L603.121524,408.135314 C605.017752,409.241448 606.147124,411.202743 606.147124,413.387124 C606.142476,415.576152 605.013105,417.5328 603.121524,418.62499 L575.928305,434.324648 C574.98019,434.873067 573.939124,435.147276 572.898057,435.147276 L572.898057,435.147276 Z" id="Fill-247" fill="#3378B0"></path>
            <polygon id="Fill-248" fill="#3378B0" points="520.022095 465.593829 651.098895 465.593829 651.098895 458.6224 520.022095 458.6224"></polygon>
            <polygon id="Fill-249" fill="#3378B0" points="545.844267 472.532724 552.815695 472.532724 552.815695 451.683505 545.844267 451.683505"></polygon>
            <path d="M632.364343,409.492419 L639.089448,373.096914 C635.245867,364.498819 633.061486,354.999086 633.061486,344.969524 C633.061486,306.849752 663.963505,275.947733 702.078629,275.947733 C740.1984,275.947733 771.100419,306.849752 771.100419,344.969524 C771.100419,383.089295 740.1984,413.991314 702.078629,413.991314 C688.619124,413.991314 676.103086,410.078019 665.483276,403.413333 L632.364343,409.492419" id="Fill-250" fill="#9CC8E1"></path>
            <path d="M702.083276,417.477029 C688.963048,417.477029 676.103086,413.889067 664.795429,407.0896 L628.018819,413.828648 L635.468952,373.5152 C631.555657,364.410514 629.575771,354.817829 629.575771,344.974171 C629.575771,328.396114 635.315581,312.185219 645.735543,299.329905 L651.150019,303.726552 C641.733943,315.340952 636.5472,329.990248 636.5472,344.974171 C636.5472,354.1904 638.471314,363.178895 642.273067,371.67939 L642.71459,372.669333 L636.714514,405.151543 L666.185067,399.746362 L667.333029,400.462095 C677.804114,407.033829 689.81821,410.5056 702.083276,410.5056 C738.213867,410.5056 767.614705,381.10941 767.614705,344.974171 C767.614705,308.834286 738.213867,279.433448 702.083276,279.433448 C692.997181,279.433448 684.203886,281.259962 675.945067,284.852571 L673.161143,278.462095 C682.307657,274.483733 692.035124,272.462019 702.083276,272.462019 C742.062095,272.462019 774.586133,304.990705 774.586133,344.974171 C774.586133,384.95299 742.062095,417.477029 702.083276,417.477029" id="Fill-251" fill="#3378B0"></path>
            <path d="M655.569905,298.804724 L650.62019,293.89219 C655.174857,289.30499 660.319771,285.345219 665.910857,282.119771 L669.391924,288.157029 C664.335314,291.071086 659.687695,294.6544 655.569905,298.804724" id="Fill-252" fill="#3378B0"></path>
            <path d="M648.449752,344.969524 C648.449752,373.715048 672.305981,397.01821 701.734705,397.01821 C731.163429,397.01821 755.019657,373.715048 755.019657,344.969524 C755.019657,316.224 731.163429,292.920838 701.734705,292.920838 C672.305981,292.920838 648.449752,316.224 648.449752,344.969524" id="Fill-253" fill="#FFFFFE"></path>
            <polyline id="Fill-254" fill="#3378B0" points="684.259657 345.745676 680.453257 339.908267 717.689981 315.643048 721.496381 321.480457 684.259657 345.745676"></polyline>
            <polyline id="Fill-255" fill="#3378B0" points="717.624914 375.141867 679.909486 349.3104 683.850667 343.556648 721.561448 369.388114 717.624914 375.141867"></polyline>
            <path d="M678.501257,334.828419 C683.957562,334.828419 688.377448,339.248305 688.377448,344.699962 C688.377448,350.151619 683.957562,354.576152 678.501257,354.576152 C673.0496,354.576152 668.629714,350.151619 668.629714,344.699962 C668.629714,339.248305 673.0496,334.828419 678.501257,334.828419" id="Fill-256" fill="#62A6CF"></path>
            <path d="M678.501257,338.314133 C674.978362,338.314133 672.115429,341.177067 672.115429,344.699962 C672.115429,348.222857 674.978362,351.090438 678.501257,351.090438 C682.024152,351.090438 684.891733,348.222857 684.891733,344.699962 C684.891733,341.177067 682.024152,338.314133 678.501257,338.314133 Z M678.501257,358.061867 C671.134781,358.061867 665.144,352.066438 665.144,344.699962 C665.144,337.333486 671.134781,331.342705 678.501257,331.342705 C685.867733,331.342705 691.863162,337.333486 691.863162,344.699962 C691.863162,352.066438 685.867733,358.061867 678.501257,358.061867 L678.501257,358.061867 Z" id="Fill-257" fill="#3378B0"></path>
            <path d="M719.595505,308.685562 C725.047162,308.685562 729.467048,313.105448 729.467048,318.561752 C729.467048,324.01341 725.047162,328.433295 719.595505,328.433295 C714.1392,328.433295 709.719314,324.01341 709.719314,318.561752 C709.719314,313.105448 714.1392,308.685562 719.595505,308.685562" id="Fill-258" fill="#62A6CF"></path>
            <path d="M719.595505,312.171276 C716.07261,312.171276 713.205029,315.038857 713.205029,318.561752 C713.205029,322.084648 716.07261,324.947581 719.595505,324.947581 C723.113752,324.947581 725.981333,322.084648 725.981333,318.561752 C725.981333,315.038857 723.113752,312.171276 719.595505,312.171276 Z M719.595505,331.91901 C712.229029,331.91901 706.2336,325.928229 706.2336,318.561752 C706.2336,311.195276 712.229029,305.199848 719.595505,305.199848 C726.957333,305.199848 732.952762,311.195276 732.952762,318.561752 C732.952762,325.928229 726.957333,331.91901 719.595505,331.91901 L719.595505,331.91901 Z" id="Fill-259" fill="#3378B0"></path>
            <path d="M719.595505,361.505752 C725.047162,361.505752 729.467048,365.925638 729.467048,371.381943 C729.467048,376.8336 725.047162,381.258133 719.595505,381.258133 C714.1392,381.258133 709.719314,376.8336 709.719314,371.381943 C709.719314,365.925638 714.1392,361.505752 719.595505,361.505752" id="Fill-260" fill="#62A6CF"></path>
            <path d="M719.595505,364.991467 C716.07261,364.991467 713.205029,367.859048 713.205029,371.381943 C713.205029,374.904838 716.07261,377.767771 719.595505,377.767771 C723.113752,377.767771 725.981333,374.904838 725.981333,371.381943 C725.981333,367.859048 723.113752,364.991467 719.595505,364.991467 Z M719.595505,384.7392 C712.229029,384.7392 706.2336,378.748419 706.2336,371.381943 C706.2336,364.015467 712.229029,358.020038 719.595505,358.020038 C726.957333,358.020038 732.952762,364.015467 732.952762,371.381943 C732.952762,378.748419 726.957333,384.7392 719.595505,384.7392 L719.595505,384.7392 Z" id="Fill-261" fill="#3378B0"></path>
            <path d="M668.6576,486.717257 L504.2016,486.717257 C500.488152,486.717257 497.462552,483.691657 497.462552,479.973562 L497.462552,370.982248 C497.462552,367.2688 500.488152,364.2432 504.2016,364.2432 L628.8368,364.2432 L628.8368,371.214629 L504.2016,371.214629 L504.433981,479.973562 L668.6576,479.745829 L668.425219,417.458438 L675.396648,417.458438 L675.396648,479.973562 C675.396648,483.691657 672.371048,486.717257 668.6576,486.717257" id="Fill-262" fill="#3378B0"></path>
            <polygon id="Fill-263" fill="#3378B0" points="110.8736 486.717257 872.255848 486.717257 872.255848 479.745829 110.8736 479.745829"></polygon>
            <polygon id="Fill-264" fill="#3378B0" points="89.6711619 486.717257 102.40099 486.717257 102.40099 479.745829 89.6711619 479.745829"></polygon>
            <polygon id="Fill-265" fill="#3378B0" points="879.520076 486.717257 907.633524 486.717257 907.633524 479.745829 879.520076 479.745829"></polygon>
            <path d="M453.240457,255.995505 C425.275733,256.553219 403.060114,279.675124 403.613181,307.639848 C404.175543,335.599924 427.2928,357.82019 455.257524,357.262476 C483.222248,356.704762 505.437867,333.582857 504.880152,305.618133 C504.322438,277.65341 481.200533,255.43779 453.240457,255.995505" id="Fill-266" fill="#D0E8EF"></path>
            <path d="M500.701943,298.474743 C496.751467,275.775771 476.292648,258.979276 453.310171,259.481219 C449.387581,259.555581 445.492876,260.117943 441.728305,261.149714 L439.8832,254.42461 C444.205486,253.239467 448.676495,252.598095 453.17539,252.50979 C479.583162,252.072914 503.0304,271.225752 507.571124,297.275657 L500.701943,298.474743" id="Fill-267" fill="#3378B0"></path>
            <path d="M407.535771,300.12 L400.62941,299.167238 C401.749486,291.0432 404.779733,283.146895 409.385524,276.333486 L415.162514,280.237486 C411.146971,286.172495 408.507124,293.046324 407.535771,300.12" id="Fill-268" fill="#3378B0"></path>
            <path d="M420.63741,273.549562 L415.664457,268.669562 C420.321371,263.924343 425.745143,260.127238 431.787048,257.361905 L434.682514,263.705905 C429.42141,266.108724 424.694781,269.422476 420.63741,273.549562" id="Fill-269" fill="#3378B0"></path>
            <path d="M457.832305,315.480381 L441.114819,315.480381 L441.114819,308.508952 L457.832305,308.508952 C459.333486,308.508952 460.55581,307.286629 460.55581,305.785448 C460.55581,304.284267 459.333486,303.061943 457.832305,303.061943 L451.144381,303.061943 C445.794971,303.061943 441.449448,298.716419 441.449448,293.36701 C441.449448,288.022248 445.794971,283.672076 451.144381,283.672076 L467.383162,283.672076 L467.383162,290.643505 L451.144381,290.643505 C449.6432,290.643505 448.420876,291.865829 448.420876,293.36701 C448.420876,294.86819 449.6432,296.090514 451.144381,296.090514 L457.832305,296.090514 C463.177067,296.090514 467.527238,300.440686 467.527238,305.785448 C467.527238,311.13021 463.177067,315.480381 457.832305,315.480381" id="Fill-270" fill="#3378B0"></path>
            <polygon id="Fill-271" fill="#3378B0" points="450.763276 322.265905 457.734705 322.265905 457.734705 276.886552 450.763276 276.886552"></polygon>
            <path d="M476.934019,307.105371 C476.934019,319.644648 466.80221,329.776457 454.295467,329.776457 C441.770133,329.776457 431.624381,319.644648 431.624381,307.105371 L386.403048,307.630552 L386.403048,310.981486 C386.37981,314.908724 389.563429,318.120229 393.513905,318.152762 L404.528762,318.189943 C405.825448,323.939048 408.056305,329.293105 411.095848,334.094095 L403.241371,341.920686 C400.457448,344.681371 400.443505,349.198857 403.227429,352.001371 L409.027657,357.852724 C411.825524,360.678476 416.352305,360.678476 419.131581,357.894552 L426.972114,350.123733 C431.787048,353.172571 437.127162,355.468495 442.885562,356.783771 L442.839086,367.798629 C442.825143,371.73981 446.01341,374.965257 449.95459,374.965257 L458.218057,374.99779 C462.163886,374.99779 465.370743,371.828114 465.370743,367.896229 L465.403276,356.848838 C471.143086,355.5568 476.515733,353.29341 481.339962,350.26781 L489.129371,358.117638 C491.904,360.896914 496.440076,360.896914 499.256533,358.117638 L505.08,352.289524 C507.882514,349.514895 507.901105,344.978819 505.084648,342.208838 L497.337067,334.372952 C500.37661,329.544076 502.653943,324.203962 503.955276,318.45021 L514.984076,318.482743 C518.929905,318.482743 522.118171,315.294476 522.136762,311.353295 L522.136762,306.682438 L476.934019,307.105371" id="Fill-272" fill="#FFFFFE"></path>
            <path d="M426.488762,345.694552 L428.83581,347.177143 C433.46019,350.105143 438.451733,352.191924 443.661714,353.381714 L446.380571,354.004495 L446.3248,367.812571 C446.320152,368.793219 446.701257,369.713448 447.393752,370.41059 C448.0816,371.098438 448.987886,371.479543 449.95459,371.479543 L458.232,371.512076 C460.239771,371.512076 461.885029,369.890057 461.885029,367.896229 L461.931505,354.055619 L464.641067,353.446781 C469.878933,352.270933 474.875124,350.20739 479.485562,347.311924 L481.8512,345.833981 L491.601905,355.659048 C493.019429,357.071924 495.352533,357.076571 496.811886,355.640457 L502.612114,349.826286 C503.3232,349.124495 503.704305,348.208914 503.704305,347.232914 C503.704305,346.26621 503.327848,345.369219 502.64,344.690667 L492.912533,334.860952 L494.385829,332.518552 C497.295238,327.898819 499.372724,322.911924 500.557867,317.683352 L501.171352,314.959848 L514.993371,314.997029 C516.996495,314.997029 518.641752,313.356419 518.651048,311.334705 L518.651048,310.200686 L480.192,310.558552 C478.500267,323.358095 467.531886,333.262171 454.295467,333.262171 C441.063695,333.262171 430.099962,323.390629 428.375695,310.628267 L389.888762,311.079086 C389.925943,313.054324 391.547962,314.648457 393.537143,314.667048 L407.317333,314.713524 L407.926171,317.423086 C409.125257,322.735314 411.184152,327.72221 414.042438,332.2304 L415.538971,334.59139 L405.699962,344.393219 C405.012114,345.076419 404.635657,345.982705 404.635657,346.94941 C404.63101,347.92541 405.012114,348.850286 405.699962,349.542781 L411.50019,355.398781 C412.197333,356.100571 413.12221,356.486324 414.102857,356.490971 L414.107505,356.490971 C415.078857,356.490971 415.985143,356.114514 416.668343,355.431314 L426.488762,345.694552 Z M458.218057,378.483505 L449.945295,378.450971 C447.12419,378.450971 444.456457,377.34019 442.453333,375.332419 C440.445562,373.310705 439.344076,370.629029 439.353371,367.784686 L439.385905,359.484038 C435.268114,358.312838 431.289752,356.639695 427.501943,354.50179 L421.590171,360.367086 C419.596343,362.360914 416.937905,363.4624 414.107505,363.4624 L414.084267,363.4624 C411.239924,363.453105 408.562895,362.337676 406.555124,360.306667 L400.750248,354.455314 C398.751771,352.442895 397.654933,349.775162 397.664229,346.935467 C397.668876,344.100419 398.779657,341.441981 400.787429,339.448152 L406.708495,333.550324 C404.617067,329.818286 402.976457,325.835276 401.809905,321.666362 L393.499962,321.638476 C387.625371,321.592 382.8848,316.800305 382.917333,310.962895 L382.917333,304.186667 L435.110095,303.577829 L435.110095,307.105371 C435.110095,317.683352 443.717486,326.290743 454.295467,326.290743 C464.854857,326.290743 473.448305,317.683352 473.448305,307.105371 L473.448305,303.65219 L525.622476,303.16419 L525.622476,311.353295 C525.59459,317.213943 520.826133,321.968457 514.984076,321.968457 L506.664838,321.949867 C505.498286,326.072305 503.839086,330.059962 501.710476,333.838476 L507.566476,339.759543 C509.555657,341.71619 510.671086,344.379276 510.675733,347.223619 C510.680381,350.077257 509.564952,352.754286 507.533943,354.766705 L501.724419,360.580876 C497.532267,364.71261 490.788571,364.717257 486.661486,360.576229 L480.7776,354.655162 C476.999086,356.765181 473.016076,358.40579 468.884343,359.563048 L468.856457,367.905524 C468.856457,373.733638 464.083352,378.483505 458.218057,378.483505 L458.218057,378.483505 Z" id="Fill-273" fill="#3378B0"></path>
            <polygon id="Fill-274" fill="#3378B0" points="449.448 247.950476 456.419429 247.950476 456.419429 240.746667 449.448 240.746667"></polygon>
            <polyline id="Fill-275" fill="#3378B0" points="476.376305 252.240229 469.82781 249.851352 475.674514 233.812419 482.22301 236.196648 476.376305 252.240229"></polyline>
            <polyline id="Fill-276" fill="#3378B0" points="493.665448 263.097067 488.325333 258.616762 493.818819 252.08221 499.154286 256.567162 493.665448 263.097067"></polyline>
            <polyline id="Fill-277" fill="#3378B0" points="506.186133 279.228952 502.705067 273.1824 517.503086 264.663314 520.979505 270.709867 506.186133 279.228952"></polyline>
            <polyline id="Fill-278" fill="#3378B0" points="512.427886 298.669943 511.2288 291.796114 519.673524 290.322819 520.87261 297.192 512.427886 298.669943"></polyline>
            <polyline id="Fill-279" fill="#3378B0" points="395.637867 300.835733 387.239619 299.246248 388.531657 292.39101 396.929905 293.980495 395.637867 300.835733"></polyline>
            <polyline id="Fill-280" fill="#3378B0" points="401.182476 281.120533 386.449524 272.4992 389.972419 266.480533 404.705371 275.101867 401.182476 281.120533"></polyline>
            <polyline id="Fill-281" fill="#3378B0" points="413.126857 264.496 407.98659 258.291429 413.35459 253.843657 418.494857 260.048229 413.126857 264.496"></polyline>
            <polyline id="Fill-282" fill="#3378B0" points="430.034895 252.965257 424.309029 236.879848 430.876114 234.537448 436.601981 250.622857 430.034895 252.965257"></polyline>
        </g>
    </g>
</svg>